<?xml version="1.0" encoding="UTF-8"?>
<svg width="41px" height="36px" viewBox="0 0 41 36" version="1.1" xmlns="http://www.w3.org/2000/svg" xmlns:xlink="http://www.w3.org/1999/xlink">
    <!-- Generator: Sketch 52.3 (67297) - http://www.bohemiancoding.com/sketch -->
    <title>khalti logo</title>
    <desc>Created with Sketch.</desc>
    <g id="Payment-new" stroke="none" stroke-width="1" fill="none" fill-rule="evenodd">
        <g id="homepage" transform="translate(-315.000000, -22.000000)" fill="#FFFFFF" fill-rule="nonzero">
            <g id="dashboard" transform="translate(-1.000000, 0.000000)">
                <g id="header">
                    <g id="khalti-logo" transform="translate(316.000000, 22.000000)">
                        <polygon id="XMLID_3636_" points="2.28185328 7 0 7.33326934 0.844878492 15 3 14.7143406"/>
                        <path d="M40.5181896,0.647667212 C40.1385577,0.231309719 39.6165639,0 38.9996621,0 L5.01725304,0 C4.40035127,0 3.87835746,0.231309719 3.4987256,0.647667212 C3.11909374,1.06402471 2.92927781,1.57290609 3.02418578,2.17431136 L5.44433888,24.894895 C5.58670082,26.2364914 6.7255964,27.9026675 7.86449198,28.5965967 L19.8718803,35.4911186 C20.4413281,35.8149522 21.2005918,36 22.0073095,36 C22.8140272,36 23.5732909,35.8149522 24.1427387,35.4911186 L36.150127,28.5965967 C37.3364766,27.9489295 38.4279182,26.2364914 38.5702801,24.894895 L40.9904332,2.17505752 C41.0401834,1.61916803 40.8978214,1.06402471 40.5181896,0.647667212 Z M29.2692996,25.5425622 C28.9371217,25.8201339 28.5100359,25.9589197 27.9880421,25.9589197 C27.4660483,25.9589197 27.0389624,25.8663958 26.7542385,25.6350861 C26.4220606,25.4037764 26.1373367,25.1262047 25.9475208,24.8023711 C25.7102509,24.4322756 25.520435,24.108442 25.330619,23.8308703 L20.9640873,17.260182 L17.926267,20.0829067 L17.926267,23.7846084 C17.926267,24.5247995 17.7364511,25.0799428 17.4042732,25.4507845 C17.0720953,25.8216262 16.5975555,26.0059278 16.0755617,26.0059278 C15.7433838,26.0059278 15.4586599,25.9134039 15.173936,25.7746181 C14.8892121,25.6358323 14.6519422,25.4045226 14.5095803,25.1269509 C14.4146723,24.8956412 14.3197644,24.6180695 14.3197644,24.3404979 C14.2723104,24.0629262 14.2723104,23.6003068 14.2723104,23.0451634 L14.2723104,9.76500093 C14.2723104,9.02480983 14.4146723,8.46966651 14.7468502,8.14508674 C15.0790281,7.77499119 15.5061139,7.58994342 16.0755617,7.58994342 C16.6450095,7.58994342 17.0720953,7.77499119 17.4042732,8.14508674 C17.7839051,8.46892035 17.926267,9.02406367 17.926267,9.76500093 L17.926267,16.0118557 L25.1874917,8.60845234 C25.5196696,8.23835679 25.8518475,8.00704707 26.0891174,7.8219993 C26.3263873,7.63695152 26.6585652,7.59068958 27.085651,7.59068958 C27.6076448,7.59068958 28.0347307,7.72947541 28.3669085,8.05330901 C28.6990864,8.37714262 28.8414484,8.74723817 28.8414484,9.16359566 C28.8414484,9.67247705 28.5567245,10.2276204 27.9872767,10.7365018 L23.478383,14.9008228 L28.6516324,22.1191784 C29.0312643,22.6280598 29.2685342,23.0444173 29.4583501,23.4145128 C29.6481661,23.7846084 29.743074,24.1547039 29.743074,24.5247995 C29.7446048,24.941157 29.6022428,25.2649906 29.2692996,25.5425622 Z" id="Shape"/>
                    </g>
                </g>
            </g>
        </g>
    </g>
</svg>